<svg xmlns="http://www.w3.org/2000/svg" width="221.436" height="233.461" viewBox="0 0 221.436 233.461">
  <g id="icon" transform="translate(4 4)">
    <path id="Stroke_1" data-name="Stroke 1" d="M0,.5H22.471" transform="translate(152.139 194.619)" fill="none" stroke="#a15300" stroke-linecap="round" stroke-linejoin="round" stroke-miterlimit="10" stroke-width="8"/>
    <path id="Stroke_2" data-name="Stroke 2" d="M0,0H38.826V74.495H0" transform="translate(0 108.937)" fill="none" stroke="#a15300" stroke-linecap="round" stroke-linejoin="round" stroke-miterlimit="10" stroke-width="8"/>
    <path id="Stroke_4" data-name="Stroke 4" d="M7.925.7H0" transform="translate(38.826 172.82)" fill="none" stroke="#a15300" stroke-linecap="round" stroke-linejoin="round" stroke-miterlimit="10" stroke-width="8"/>
    <path id="Stroke_5" data-name="Stroke 5" d="M0,16.435H13.682A16.41,16.41,0,0,1,30.062,0H59.624C69.835,0,75.316,1.7,78.687,6.019" transform="translate(38.826 100.578)" fill="none" stroke="#a15300" stroke-linecap="round" stroke-linejoin="round" stroke-miterlimit="10" stroke-width="8"/>
    <path id="Stroke_7" data-name="Stroke 7" d="M13.085.542,12.585,0A7.791,7.791,0,1,1,1.159,10.6L0,9.331" transform="translate(108.449 206.178)" fill="none" stroke="#a15300" stroke-linecap="round" stroke-linejoin="round" stroke-miterlimit="10" stroke-width="8"/>
    <path id="Stroke_9" data-name="Stroke 9" d="M.083,0,19.1,20.664a9.373,9.373,0,0,1-1.06,13.152,9.3,9.3,0,0,1-13.156,0L0,28.531" transform="translate(118.643 175.052)" fill="none" stroke="#a15300" stroke-linecap="round" stroke-linejoin="round" stroke-miterlimit="10" stroke-width="8"/>
    <path id="Stroke_11" data-name="Stroke 11" d="M15.617,0,43.84,30.659a9.494,9.494,0,0,1-.863,13.348,9.41,9.41,0,0,1-13.348-.2L0,11.634" transform="translate(108.211 152.001)" fill="none" stroke="#a15300" stroke-linecap="round" stroke-linejoin="round" stroke-miterlimit="10" stroke-width="8"/>
    <path id="Stroke_13" data-name="Stroke 13" d="M18.771,0,41.5,24.7a9.323,9.323,0,0,1-1.13,13.073,9.248,9.248,0,0,1-13.077.1L0,8.614" transform="translate(123.895 143.467)" fill="none" stroke="#a15300" stroke-linecap="round" stroke-linejoin="round" stroke-miterlimit="10" stroke-width="8"/>
    <path id="Stroke_15" data-name="Stroke 15" d="M38.826,0H0V74.495H38.826" transform="translate(174.609 125.23)" fill="none" stroke="#a15300" stroke-linecap="round" stroke-linejoin="round" stroke-miterlimit="10" stroke-width="8"/>
    <path id="Stroke_17" data-name="Stroke 17" d="M104.917,23.284H91.231A23.234,23.234,0,0,0,68.026,0H38.64a8.534,8.534,0,0,0-6.048,2.5L.339,34.876a1.135,1.135,0,0,0,0,1.618,19.909,19.909,0,0,0,28.24,0l16.143-16.2,3.541,5.485a16.364,16.364,0,0,0,19.313,6.553l8.543-3.058" transform="translate(69.688 106.601)" fill="none" stroke="#a15300" stroke-linecap="round" stroke-linejoin="round" stroke-miterlimit="10" stroke-width="8"/>
    <path id="Stroke_19" data-name="Stroke 19" d="M5.781,26.606,2.707,24A7.709,7.709,0,0,1,1.823,13.15L10.657,2.713a7.638,7.638,0,0,1,10.791-.888l3.07,2.62A7.7,7.7,0,0,1,25.4,15.29L16.568,25.718a7.638,7.638,0,0,1-10.787.888Z" transform="translate(44.358 160.913)" fill="none" stroke="#a15300" stroke-linecap="round" stroke-linejoin="round" stroke-miterlimit="10" stroke-width="8"/>
    <path id="Stroke_21" data-name="Stroke 21" d="M5.781,35.11,2.707,32.5a7.709,7.709,0,0,1-.884-10.845L17.849,2.712a7.638,7.638,0,0,1,10.8-.884l3.07,2.611A7.7,7.7,0,0,1,32.6,15.284L16.572,34.23a7.642,7.642,0,0,1-10.791.88Z" transform="translate(59.107 164.965)" fill="none" stroke="#a15300" stroke-linecap="round" stroke-linejoin="round" stroke-miterlimit="10" stroke-width="8"/>
    <path id="Stroke_23" data-name="Stroke 23" d="M5.784,38.4,2.709,35.787a7.7,7.7,0,0,1-.884-10.845L20.638,2.713a7.638,7.638,0,0,1,10.791-.888l3.07,2.62a7.692,7.692,0,0,1,.884,10.82L16.575,37.539A7.642,7.642,0,0,1,5.784,38.4Z" transform="translate(73.858 174.232)" fill="none" stroke="#a15300" stroke-linecap="round" stroke-linejoin="round" stroke-miterlimit="10" stroke-width="8"/>
    <path id="Stroke_25" data-name="Stroke 25" d="M4.817,31.7,2.256,29.517a6.42,6.42,0,0,1-.738-9.031L16.926,2.262a6.365,6.365,0,0,1,8.993-.742L28.481,3.7a6.415,6.415,0,0,1,.738,9.022L13.81,30.952a6.361,6.361,0,0,1-8.993.751Z" transform="translate(88.09 192.236)" fill="none" stroke="#a15300" stroke-linecap="round" stroke-linejoin="round" stroke-miterlimit="10" stroke-width="8"/>
    <path id="Stroke_28" data-name="Stroke 28" d="M32.219,16.96a16.552,16.552,0,0,1-16.109,16.96A16.552,16.552,0,0,1,0,16.96,16.552,16.552,0,0,1,16.109,0,16.552,16.552,0,0,1,32.219,16.96Z" transform="translate(88.147 0)" fill="none" stroke="#a15300" stroke-linecap="round" stroke-linejoin="round" stroke-miterlimit="10" stroke-width="8"/>
    <path id="Stroke_30" data-name="Stroke 30" d="M.7,25.662V0" transform="translate(122.069 66.361)" fill="none" stroke="#a15300" stroke-linecap="round" stroke-linejoin="round" stroke-miterlimit="10" stroke-width="8"/>
    <path id="Stroke_32" data-name="Stroke 32" d="M0,0V.834A2.7,2.7,0,0,0,2.686,3.546h10.4a9.244,9.244,0,0,1,9.227,9.26v36.8" transform="translate(111.619 42.413)" fill="none" stroke="#a15300" stroke-linecap="round" stroke-linejoin="round" stroke-miterlimit="10" stroke-width="8"/>
    <path id="Stroke_34" data-name="Stroke 34" d="M.7,19.659V0" transform="translate(85.595 66.361)" fill="none" stroke="#a15300" stroke-linecap="round" stroke-linejoin="round" stroke-miterlimit="10" stroke-width="8"/>
    <path id="Stroke_36" data-name="Stroke 36" d="M22.316,0V.834a2.7,2.7,0,0,1-2.682,2.711H9.227A9.244,9.244,0,0,0,0,12.806V43.477" transform="translate(75.15 42.413)" fill="none" stroke="#a15300" stroke-linecap="round" stroke-linejoin="round" stroke-miterlimit="10" stroke-width="8"/>
    <path id="Stroke_38" data-name="Stroke 38" d="M28.055,14.766A14.408,14.408,0,0,1,14.027,29.533,14.408,14.408,0,0,1,0,14.766,14.412,14.412,0,0,1,14.027,0,14.412,14.412,0,0,1,28.055,14.766Z" transform="translate(32.849 20.239)" fill="none" stroke="#a15300" stroke-linecap="round" stroke-linejoin="round" stroke-miterlimit="10" stroke-width="8"/>
    <path id="Stroke_40" data-name="Stroke 40" d="M.7,7.975V0" transform="translate(62.29 78.553)" fill="none" stroke="#a15300" stroke-linecap="round" stroke-linejoin="round" stroke-miterlimit="10" stroke-width="8"/>
    <path id="Stroke_42" data-name="Stroke 42" d="M0,.335v.742A2.344,2.344,0,0,0,2.34,3.426H13.406" transform="translate(53.292 57.37)" fill="none" stroke="#a15300" stroke-linecap="round" stroke-linejoin="round" stroke-miterlimit="10" stroke-width="8"/>
    <path id="Stroke_44" data-name="Stroke 44" d="M.7,15.763V0" transform="translate(30.543 78.549)" fill="none" stroke="#a15300" stroke-linecap="round" stroke-linejoin="round" stroke-miterlimit="10" stroke-width="8"/>
    <path id="Stroke_46" data-name="Stroke 46" d="M19.43,0V.742A2.344,2.344,0,0,1,17.1,3.087H8.03A8.046,8.046,0,0,0,0,11.154V36.741" transform="translate(21.54 57.701)" fill="none" stroke="#a15300" stroke-linecap="round" stroke-linejoin="round" stroke-miterlimit="10" stroke-width="8"/>
    <path id="Stroke_48" data-name="Stroke 48" d="M0,14.766A14.408,14.408,0,0,0,14.027,29.533a14.408,14.408,0,0,0,14.02-14.766A14.408,14.408,0,0,0,14.027,0,14.408,14.408,0,0,0,0,14.766Z" transform="translate(147.588 20.239)" fill="none" stroke="#a15300" stroke-linecap="round" stroke-linejoin="round" stroke-miterlimit="10" stroke-width="8"/>
    <path id="Stroke_50" data-name="Stroke 50" d="M.7,14.107V0" transform="translate(144.781 78.549)" fill="none" stroke="#a15300" stroke-linecap="round" stroke-linejoin="round" stroke-miterlimit="10" stroke-width="8"/>
    <path id="Stroke_52" data-name="Stroke 52" d="M13.406.335v.742a2.344,2.344,0,0,1-2.34,2.348H0" transform="translate(141.798 57.37)" fill="none" stroke="#a15300" stroke-linecap="round" stroke-linejoin="round" stroke-miterlimit="10" stroke-width="8"/>
    <path id="Stroke_54" data-name="Stroke 54" d="M.7,32.373V0" transform="translate(176.529 78.553)" fill="none" stroke="#a15300" stroke-linecap="round" stroke-linejoin="round" stroke-miterlimit="10" stroke-width="8"/>
    <path id="Stroke_56" data-name="Stroke 56" d="M0,0V.742A2.344,2.344,0,0,0,2.34,3.087H11.4a8.046,8.046,0,0,1,8.034,8.067V53.221" transform="translate(167.527 57.701)" fill="none" stroke="#a15300" stroke-linecap="round" stroke-linejoin="round" stroke-miterlimit="10" stroke-width="8"/>
  </g>
</svg>
