<svg xmlns="http://www.w3.org/2000/svg" width="208.782" height="208.811" viewBox="0 0 208.782 208.811">
  <g id="Icon" transform="translate(4 4)">
    <path id="Stroke_607" data-name="Stroke 607" d="M142.505,103.621H12.953a12.953,12.953,0,0,1,0-25.906H71.237a12.953,12.953,0,0,0,0-25.906H12.953a12.953,12.953,0,0,1,0-25.906H71.237A12.953,12.953,0,1,0,71.237,0H51.788" transform="translate(0 97.19)" fill="none" stroke="#a15300" stroke-miterlimit="10" stroke-width="8" stroke-dasharray="0.755 0.755"/>
    <path id="Stroke_609" data-name="Stroke 609" d="M48.546,138.232h0L7.667,74.723a48.549,48.549,0,1,1,81.763,0L48.55,138.229Zm0-113.348a22.66,22.66,0,1,1,0,.02Z" transform="translate(103.637 58.342)" fill="none" stroke="#a15300" stroke-miterlimit="10" stroke-width="8"/>
    <path id="Stroke_611" data-name="Stroke 611" d="M33.694,95.934h0L5.334,51.873a33.7,33.7,0,1,1,56.725,0L33.7,95.931Zm0-78.609A15.724,15.724,0,1,0,49.418,33.049,15.724,15.724,0,0,0,33.694,17.326Z" transform="translate(3.238 0.015)" fill="none" stroke="#a15300" stroke-miterlimit="10" stroke-width="8"/>
  </g>
</svg>
