<svg xmlns="http://www.w3.org/2000/svg" width="216.993" height="221.827" viewBox="0 0 216.993 221.827">
  <g id="icon" transform="translate(4.015 4.037)">
    <g id="Group_25" data-name="Group 25" transform="translate(0)">
      <path id="Stroke_1" data-name="Stroke 1" d="M23.67,19.339l-9.4,4.113A10.249,10.249,0,0,1,.854,18.277,10.1,10.1,0,0,1,6.065,4.957l9.4-4.109A10.245,10.245,0,0,1,28.885,6.036a10.112,10.112,0,0,1-5.215,13.3Z" transform="translate(179.212 88.41)" fill="none" stroke="#a15300" stroke-linecap="round" stroke-miterlimit="10" stroke-width="8"/>
      <path id="Stroke_3" data-name="Stroke 3" d="M23.665,19.342l-9.392,4.1A10.237,10.237,0,0,1,.856,18.276,10.088,10.088,0,0,1,6.067,4.96l9.4-4.109A10.229,10.229,0,0,1,28.88,6.035a10.1,10.1,0,0,1-5.215,13.308Z" transform="translate(171.27 113.598)" fill="none" stroke="#a15300" stroke-linecap="round" stroke-miterlimit="10" stroke-width="8"/>
      <path id="Stroke_5" data-name="Stroke 5" d="M23.669,19.342l-9.4,4.113A10.249,10.249,0,0,1,.852,18.275,10.1,10.1,0,0,1,6.064,4.96l9.4-4.109A10.241,10.241,0,0,1,28.884,6.034,10.112,10.112,0,0,1,23.669,19.342Z" transform="translate(163.29 138.885)" fill="none" stroke="#a15300" stroke-linecap="round" stroke-miterlimit="10" stroke-width="8"/>
      <path id="Stroke_7" data-name="Stroke 7" d="M23.664,19.337l-9.392,4.109A10.233,10.233,0,0,1,.856,18.271,10.084,10.084,0,0,1,6.067,4.959l9.4-4.109A10.233,10.233,0,0,1,28.88,6.034,10.1,10.1,0,0,1,23.664,19.337Z" transform="translate(155.347 164.072)" fill="none" stroke="#a15300" stroke-linecap="round" stroke-miterlimit="10" stroke-width="8"/>
      <path id="Stroke_9" data-name="Stroke 9" d="M20.589,54.234.123,14.062a1.131,1.131,0,0,1,.515-1.529L25.8.123a1.147,1.147,0,0,1,1.529.483L61.5,64.564a1.155,1.155,0,0,0,1.533.483L75.485,58.8c8.821,6.752,22.454,8.269,41.045-.664l14.434-7.791" transform="translate(-0.001 148.607)" fill="none" stroke="#a15300" stroke-linecap="round" stroke-miterlimit="10" stroke-width="8"/>
      <path id="Stroke_11" data-name="Stroke 11" d="M40.1,112.36l1.408-1.891A58.155,58.155,0,0,0,48.59,53.456L59.206,35.566A35.247,35.247,0,0,0,61.383,3.824,6.3,6.3,0,0,0,50.558,2.512L29.005,31.22a52.252,52.252,0,0,0-8.684,17.818L16.148,64.591a16.865,16.865,0,0,1-5.179,8.29L0,82.45" transform="translate(32.077 75.664)" fill="none" stroke="#a15300" stroke-linecap="round" stroke-miterlimit="10" stroke-width="8"/>
      <path id="Stroke_13" data-name="Stroke 13" d="M5.082.557.253,2.907" transform="translate(18.537 169.38)" fill="none" stroke="#a15300" stroke-linecap="round" stroke-miterlimit="10" stroke-width="8"/>
      <path id="Stroke_15" data-name="Stroke 15" d="M83.7,5.77l-2.74,8.716A10.289,10.289,0,0,1,68.083,21.17L0,0" transform="translate(76.378 181.985)" fill="none" stroke="#a15300" stroke-linecap="round" stroke-miterlimit="10" stroke-width="8"/>
      <path id="Stroke_17" data-name="Stroke 17" d="M0,76.815l18.233-57.8,3.75-11.867A10.281,10.281,0,0,1,34.848.471l73.982,23a10.169,10.169,0,0,1,6.724,12.748L98.271,91.028" transform="translate(92.333 0.001)" fill="none" stroke="#a15300" stroke-linecap="round" stroke-miterlimit="10" stroke-width="8"/>
      <path id="Stroke_19" data-name="Stroke 19" d="M0,.339l13.167,4.1" transform="translate(105.488 174.724)" fill="none" stroke="#a15300" stroke-linecap="round" stroke-miterlimit="10" stroke-width="8"/>
      <path id="Stroke_21" data-name="Stroke 21" d="M93.579,29.082,0,0" transform="translate(110.566 19.019)" fill="none" stroke="#a15300" stroke-linecap="round" stroke-miterlimit="10" stroke-width="8"/>
      <path id="Stroke_23" data-name="Stroke 23" d="M69.753,21.682,0,0" transform="translate(84.981 155.02)" fill="none" stroke="#a15300" stroke-linecap="round" stroke-miterlimit="10" stroke-width="8"/>
    </g>
    <g id="Group_32" data-name="Group 32" transform="translate(120.394 65.086)">
      <path id="Stroke_26" data-name="Stroke 26" d="M35.7,16.183C37.95,8.746,33.246,3.1,25.753.859S10.989.674,8.732,8.119s1.795,10.338,9.481,17.537S29.954,35.748,27.7,43.192,18.212,52.6,10.715,50.355-1.711,42.508.555,35.064" transform="translate(0 5.829)" fill="none" stroke="#a15300" stroke-linecap="round" stroke-linejoin="round" stroke-miterlimit="10" stroke-width="8"/>
      <path id="Stroke_28" data-name="Stroke 28" d="M2.42.116.633,6.011" transform="translate(25.354 -0.116)" fill="none" stroke="#a15300" stroke-linecap="round" stroke-linejoin="round" stroke-miterlimit="10" stroke-width="8"/>
      <path id="Stroke_30" data-name="Stroke 30" d="M2.42.116.633,6.011" transform="translate(8.054 56.86)" fill="none" stroke="#a15300" stroke-linecap="round" stroke-linejoin="round" stroke-miterlimit="10" stroke-width="8"/>
    </g>
  </g>
</svg>
