<svg id="ILUSTRATION_2" data-name="ILUSTRATION 2" xmlns="http://www.w3.org/2000/svg" width="300" height="233.188" viewBox="0 0 300 233.188">
  <path id="Path" d="M2.936,0,0,37.991H6.756L17.031,0Z" transform="translate(123.144 161.135)" fill="#ffa04b"/>
  <path id="Path-2" data-name="Path" d="M8.591,40.611h5.82L12.75,0,0,1.1,8.591,40.611Z" transform="translate(206.987 158.515)" fill="#ffa04b"/>
  <path id="Path-3" data-name="Path" d="M10.48,19.651H4.689L0,1.966,10.48,0V19.651Z" transform="translate(195.197 159.825)" fill="#ffa04b"/>
  <path id="Path-4" data-name="Path" d="M19.281,113.548c18.778,10.9,85.491,7.547,107.636,0,20.7-10.63,19.167-52.121,22.428-86.957L97.207,2.544C77.585-2.5,31.053.355,21.524,7.577,3.174,45.5-14.919,82.78,19.281,113.548Z" transform="translate(99.563 48.472)" fill="#acb6c7"/>
  <path id="Path-5" data-name="Path" d="M.169,18.341a.156.156,0,0,1-.122-.053.175.175,0,0,1,0-.239C5.781,12.475,9.517,6.614,11.47.119a.162.162,0,0,1,.078-.1.154.154,0,0,1,.124-.01.172.172,0,0,1,.111.213C9.812,6.77,6.046,12.684.272,18.295a.171.171,0,0,1-.1.046Z" transform="translate(121.834 142.795)" fill="#061432"/>
  <path id="Path-6" data-name="Path" d="M10.3,19.636a.182.182,0,0,1-.137-.064C4.825,12.747,1.5,6.413,0,.207A.174.174,0,0,1,.137,0,.176.176,0,0,1,.344.132c1.493,6.156,4.8,12.456,10.1,19.251a.165.165,0,0,1,.013.175.177.177,0,0,1-.154.093Z" transform="translate(213.537 141.485)" fill="#061432"/>
  <path id="Path-7" data-name="Path" d="M22.036,44.541c-9.125-7.309-12.924-18.822-16.6-29.953A119.6,119.6,0,0,0,0,.144L.316,0A122.541,122.541,0,0,1,5.782,14.482c3.658,11.089,7.442,22.553,16.488,29.8Z" transform="translate(104.803 99.563)" fill="#061432"/>
  <path id="Path-8" data-name="Path" d="M.2,44.541l-.2-.28C9.183,38.121,15,18.74,20.632,0l.329.1C15.309,18.9,9.459,38.333.2,44.541Z" transform="translate(220.087 99.563)" fill="#061432"/>
  <path id="Path-9" data-name="Path" d="M36.506,23.581h-.345c-16.437-.03-27.416-2.272-32.624-6.661A9.139,9.139,0,0,1,0,9.7c-.08-3.913.827-6.695,2.7-8.3A6.585,6.585,0,0,1,8.055.1L8,.429A6.268,6.268,0,0,0,2.93,1.656C1.166,3.151.274,5.889.346,9.7A8.8,8.8,0,0,0,3.76,16.67C8.916,21,19.818,23.22,36.172,23.25h.345c13.5,0,30.746-1.521,49.892-4.407l.053.327C67.29,22.063,50.03,23.581,36.506,23.581Z" transform="translate(127.074 120.524)" fill="#061432"/>
  <path id="Path-10" data-name="Path" d="M4.405,22.271l-.28-.208A14.9,14.9,0,0,0,7.236,9.947,14.54,14.54,0,0,0,0,.292L.182,0a14.935,14.935,0,0,1,7.4,9.881A15.254,15.254,0,0,1,4.405,22.271Z" transform="translate(212.227 115.284)" fill="#061432"/>
  <rect id="Rectangle" width="37.991" height="1" transform="translate(132.314 128.216)" fill="#061432"/>
  <rect id="Rectangle-2" data-name="Rectangle" width="35.371" height="1" transform="translate(178.166 128.216)" fill="#061432"/>
  <rect id="Rectangle-3" data-name="Rectangle" width="48.472" height="1" transform="translate(136.245 58.784)" fill="#061432"/>
  <path id="Path-11" data-name="Path" d="M17,0,0,2.1,1.429,75.567l28.606,9.586,18.436-.811L46.087,6.8,17,0Z" transform="translate(37.991 144.105)" fill="#1a3a7e"/>
  <path id="Path-12" data-name="Path" d="M13.1,0,11.463,1.542H2.621L0,74.77,39.462,85.153,55.022,79.8,52.893,4.987,13.1,0Z" transform="translate(9.17 148.035)" fill="#ffc14e"/>
  <rect id="Rectangle-4" data-name="Rectangle" width="1" height="68.122" transform="translate(48.303 159.825)"/>
  <path id="Path-13" data-name="Path" d="M5.581,18.341a7.951,7.951,0,0,1-.852-.05H4.688A6.667,6.667,0,0,1,.5,14.435C-.715,11.285.28,6.7,3.625,0l.3.154c-3.3,6.6-4.291,11.1-3.118,14.154a6.371,6.371,0,0,0,3.978,3.651c5.354.586,9.8-4.723,13.234-15.784l.32.1C15.034,12.939,10.747,18.337,5.581,18.341Z" transform="translate(15.721 154.585)"/>
  <path id="Path-14" data-name="Path" d="M10.071,5.621l4.339,7.14L9.116,18.341,1.411,15.154,1.575,11.8,0,7.186V0L6.386,2.075l3.685,3.546Z" transform="translate(252.838 138.865)" fill="#ff9375"/>
  <path id="Path-15" data-name="Path" d="M14.606,3.311,6.351,0,0,10.408l8.846,4.571,5.761,2.052,3.735-8.517-3.735-5.2Z" transform="translate(254.148 69.432)" fill="#ff9375"/>
  <path id="Path-16" data-name="Path" d="M9.28,0,0,10.807,37.11,28.821c4.17-6.423,3.2-15.823-10.076-18.8L22.075.939C17.238,2.87,12.935,2.7,9.28,0Z" transform="translate(244.978 150.655)" fill="#061432"/>
  <path id="Path-17" data-name="Path" d="M0,17.513,7.5,32.751,37.991,4.7C32.085-3.239,20.912-.484,15.165,8.2L5.906,5.506C8.46,12.165,4.786,18.731,0,17.513Z" transform="translate(262.009 66.812)" fill="#061432"/>
  <path id="Path-18" data-name="Path" d="M0,52.216C17.121,30.089,28.29,2.124,39.226.17c10.91-2.181,33.282,17.152,55.1,30.541l-9.029,13.4L50.429,30.71c.41,8.011.271,16.041-7.783,24.311Z" transform="translate(168.996 39.301)" fill="#1f57c7"/>
  <path id="Path-19" data-name="Path" d="M0,45.624c13.234.979,28.435,0,47.023-1.89C60.637,42.146,74.818,17.387,79.187,20.06c2.8,2.8-2.069,31.379,10.344,50.683l10.033-1.565C95.49,36.955,99.522,6.8,87.966,2.306,72.916-5.278,54.1,7.86,17.872,12.733L5.509,21.311Z" transform="translate(163.755 75.983)" fill="#2961eb"/>
  <path id="Path-20" data-name="Path" d="M46.431,0H35.923L0,8.1l9.654,63.95L69.432,57.729,46.431,0Z" transform="translate(27.511 20.961)" fill="#2961eb"/>
  <path id="Path-21" data-name="Path" d="M0,15.721A61.218,61.218,0,0,1,8.655,0L11.79.819C10.528,4.019,10,8.622,9.85,13.94l-1.928.679L9.413,1.494A45.213,45.213,0,0,0,2.4,15.713Z" transform="translate(40.611 11.79)" fill="#2961eb"/>
  <path id="Path-22" data-name="Path" d="M.886,2.325A59.189,59.189,0,0,1,0,14.41H1.83A53.9,53.9,0,0,0,2.492,1.392h1.1A42.753,42.753,0,0,1,6.459,12.163l1.4-.154C7.916,7.383,7.082,3.288,4.93,0L.959.351Z" transform="translate(55.022 11.79)" fill="#2961eb"/>
  <path id="Path-23" data-name="Path" d="M5.853,0l12.96,1.7L45.852,3.269l-.835,53.692L15.609,58.952,0,53.7,5.853,0Z" transform="translate(0 61.572)" fill="#ff1600"/>
  <path id="Path-24" data-name="Path" d="M9.346,0C4.336,0,3.965,11.58,0,19.592l1.9,1.368C4.606,16.185,4.675,7.6,6.774,5.394l3.252,15.567H11.79Z" transform="translate(15.721 45.852)" fill="#ff1600"/>
  <path id="Path-25" data-name="Path" d="M0,15.821,7.072,0H8.7L14.41,15.821H11.422L7.207,3.21,2.047,17.031,0,15.821Z" transform="translate(23.581 51.092)" fill="#ff1600"/>
  <path id="Path-26" data-name="Path" d="M22.861,3.5,12.353.193C7.862-.878,2.933,2.563.428,9.169c-1.292,4.575.437,7.281,3.926,8.9C7.3,19.321,12.7,16.265,12.7,8.5l7.087,4.259h3.79Z" transform="translate(23.581 37.991)" fill="#ff9375"/>
  <path id="Path-27" data-name="Path" d="M28.821,9.914C22.994,5.439,16.758-.524,13.3.037A8.6,8.6,0,0,0,6.791,5.789C3.052,5.07,1.086,6.863.008,9.933c-.193,2.98,2.973,4.34,7.061,5.274,2.49,0,5.82-2.422,8.581-5.052,2.49,0,6.132,3.956,10.658,6.875Z" transform="translate(48.472)" fill="#ff9375"/>
  <path id="Path-28" data-name="Path" d="M57.642,53.7C50.438,33.06,24.53,6.479,6.221,0,1.7,1.42-.709,4.069.184,8.6l41.1,47.733Z" transform="translate(72.052 9.17)" fill="#eea843"/>
  <path id="Path-29" data-name="Path" d="M15.983,0a28.012,28.012,0,0,0,8.908,11.9L14.237,20.961,6.052,18.537,0,3.6Z" transform="translate(91.703 47.162)" fill="#f27553"/>
  <path id="Path-30" data-name="Path" d="M23.882,7.921c6.693,6.549,7.672,15.9,4.536,18.962-4.9,4.8-16.546,6.754-22.273,1.136C-.544,21.47-2,9.534,2.9,4.737,12.247-4.4,17.193,1.372,23.882,7.921Z" transform="translate(83.843 22.271)" fill="#ff9375"/>
  <path id="Path-31" data-name="Path" d="M31.444,2.246c-4.866.316-8.389,3.335-9.066,7.447s1.445,10.131-.161,15.124c-1.265,3.928,4.417,5.812,5.2,12.782l9.269,31.514c-4.118,7.7-4.619,17.845-4.3,30.45L23.77,97.71l-1.048-4.162-1.7,2.368H15.9l1.7-6.737-4.155,5.5L8.9,90.7l3.41-5.135L7,90.124,0,86.7c1.7-7.989,10.856-17.669,10.856-30.4L8.7,35.249C7.505,29.49,3.59,17.159,8.134,9.1,14.154-1,25.185-1.727,31.444,2.246Z" transform="translate(68.122 20.961)" fill="#061432"/>
  <ellipse id="Oval" cx="3.299" cy="5.55" rx="3.299" ry="5.55" transform="translate(82.552 49.848) rotate(-64.96)" fill="#ff9375"/>
  <path id="Path-32" data-name="Path" d="M4.782,0C1.17,1.937-1.806,10.616,1.3,13.763c11.645,11.1,34.459,23.464,62.64,36.434L78.314,71.333c5.492,7.867,25.529,10.719,43.494,9.686,10.609-11.653,20.832-26.527,17.837-33.307-11.275-.735-24.905-3.622-31.77-10.559-2.7-7.04-6.43-12.695-12.182-15.57-5.59-2.661-9.614.547-20.9-4.4-2.231,3.411-8.321,4.433-10.8,4.881C46.427,16.439,22.135,0,4.782,0Z" transform="translate(41.921 40.611)" fill="#ffbf46"/>
  <path id="Path-33" data-name="Path" d="M.132,3.93a.222.222,0,0,1,0-.406A3.387,3.387,0,0,0,3.626.177.2.2,0,0,1,3.718.016.123.123,0,0,1,3.87.041a.237.237,0,0,1,.059.187A3.726,3.726,0,0,1,.142,3.93Z" transform="translate(94.323 32.751)" fill="#061432"/>
  <path id="Path-34" data-name="Path" d="M.411,1.306a2.186,2.186,0,0,1-.251,0,.21.21,0,0,1-.124-.053A.1.1,0,0,1,0,1.152a.135.135,0,0,1,.075-.088A.249.249,0,0,1,.22,1.041,2.983,2.983,0,0,0,1.837.684a.7.7,0,0,0,.4-.568A.183.183,0,0,1,2.431,0,.183.183,0,0,1,2.62.116a.939.939,0,0,1-.536.771A3.479,3.479,0,0,1,.411,1.306Z" transform="translate(102.183 28.821)" fill="#061432"/>
  <path id="Path-35" data-name="Path" d="M.142,5.237a.106.106,0,0,1-.048,0,.189.189,0,0,1-.086-.223A8.389,8.389,0,0,1,3.743.008a.138.138,0,0,1,.176.1.19.19,0,0,1-.068.22C1.706,1.417.691,3.813.276,5.141a.149.149,0,0,1-.134.1Z" transform="translate(93.013 30.131)" fill="#061432"/>
  <path id="Path-36" data-name="Path" d="M.125,1.31c-.053,0-.1-.056-.117-.138A.313.313,0,0,1,.044.94,2.176,2.176,0,0,1,1.167,0c.068-.017.132.062.142.176S1.272.4,1.2.415A1.934,1.934,0,0,0,.2,1.24.126.126,0,0,1,.125,1.31Z" transform="translate(100.873 27.511)" fill="#061432"/>
  <path id="Path-37" data-name="Path" d="M3.245,3.926a.254.254,0,0,1-.087,0,.14.14,0,0,1-.087-.205c.518-.818.623-1.468.314-1.985C3,1.1,1.974.641.149.3.045.282-.019.2.005.117A.158.158,0,0,1,.091.023.237.237,0,0,1,.236,0C2.187.367,3.285.877,3.72,1.609A2.076,2.076,0,0,1,3.4,3.858a.213.213,0,0,1-.157.068Z" transform="translate(103.493 34.061)" fill="#061432"/>
  <path id="Path-38" data-name="Path" d="M.741,3.93A5.388,5.388,0,0,1,.16,3.9.188.188,0,0,1,0,3.691a.185.185,0,0,1,.2-.168A6.29,6.29,0,0,0,6.2.1.182.182,0,0,1,6.45.019a.191.191,0,0,1,.082.251A6.771,6.771,0,0,1,.741,3.93Z" transform="translate(104.803 40.611)" fill="#061432"/>
  <circle id="Oval-2" data-name="Oval" cx="1.965" cy="1.965" r="1.965" transform="translate(26.201 68.122)" fill="#061432"/>
  <circle id="Oval-3" data-name="Oval" cx="1.965" cy="1.965" r="1.965" transform="translate(35.371 68.122)" fill="#061432"/>
  <path id="Path-39" data-name="Path" d="M.155,36.68h0a.168.168,0,0,1-.117-.057A.157.157,0,0,1,0,36.5L3.586.151A.163.163,0,0,1,3.648.037.173.173,0,0,1,3.775,0a.17.17,0,0,1,.154.183L.34,36.531a.163.163,0,0,1-.06.112.173.173,0,0,1-.125.037Z" transform="translate(14.41 69.432)"/>
</svg>
